<?xml version="1.0" encoding="UTF-8" standalone="no"?>
<svg
   version="1.1"
   width="1684pt"
   height="2384pt"
   viewBox="0 0 1683.6 2383.92"
   id="svg30"
   sodipodi:docname="bieling.svg"
   inkscape:version="1.4.3 (0d15f75, 2025-12-25)"
   xmlns:inkscape="http://www.inkscape.org/namespaces/inkscape"
   xmlns:sodipodi="http://sodipodi.sourceforge.net/DTD/sodipodi-0.dtd"
   xmlns="http://www.w3.org/2000/svg"
   xmlns:svg="http://www.w3.org/2000/svg">
  <sodipodi:namedview
     id="namedview30"
     pagecolor="#ffffff"
     bordercolor="#000000"
     borderopacity="0.25"
     inkscape:showpageshadow="2"
     inkscape:pageopacity="0.0"
     inkscape:pagecheckerboard="0"
     inkscape:deskcolor="#d1d1d1"
     inkscape:document-units="pt"
     inkscape:zoom="0.57099413"
     inkscape:cx="1123.4792"
     inkscape:cy="1589.3333"
     inkscape:window-width="3840"
     inkscape:window-height="2054"
     inkscape:window-x="-11"
     inkscape:window-y="-11"
     inkscape:window-maximized="1"
     inkscape:current-layer="svg30" />
  <defs
     id="defs1" />
  <g
     id="letter-l">
    <path
       d="m 823.5497,1257.772 h 28.3464 v -232.441 h -28.3464 z"
       stroke="#1c1c1a"
       stroke-width="0.24"
       stroke-linecap="round"
       stroke-linejoin="round"
       fill="none"
       id="path15" />
    <path
       d="m 823.5497,1257.772 c 9.4488,0 18.89757,0 28.3464,0 0,-77.4804 0,-154.9606 0,-232.441 -9.44883,0 -18.8976,0 -28.3464,0 0,77.4804 0,154.9606 0,232.441 z"
       stroke="#000000"
       stroke-width="0"
       fill="#1c1c1a"
       fill-opacity="1"
       id="path16" />
  </g>
  <g
     id="letter-g">
    <path
       d="m 1136.9553,1117.6609 c 8.1877,-0.014 17.0633,1.5456 25.6278,5.0738 8.5645,3.5283 16.818,9.0245 23.6023,16.095 6.7843,7.0707 12.0994,15.7157 15.5027,24.5042 3.4031,8.7885 4.8944,17.7203 4.8871,26.607 -0.01,8.8866 -1.5134,17.7281 -4.8733,26.5477 -1.6799,4.4098 -3.8234,8.8141 -6.4777,13.007 -2.6542,4.1929 -5.8195,8.1744 -9.236,11.7048 -13.6664,14.1216 -31.3533,21.0265 -49.04,21.0275 -17.6866,9e-4 -35.3729,-6.9022 -49.0378,-21.0225 -3.4161,-3.5301 -6.5811,-7.5112 -9.235,-11.7038 -2.6539,-4.1926 -4.7969,-8.5968 -6.4763,-13.0064 -3.359,-8.8193 -4.8641,-17.6606 -4.8706,-26.5472 -0.01,-8.8867 1.4856,-17.8187 4.8896,-26.6074 3.4041,-8.7888 8.7201,-17.4345 15.5052,-24.5058 6.7849,-7.0714 15.0389,-12.5684 23.6038,-16.0975 8.565,-3.5289 17.4407,-5.0898 25.6282,-5.0764 z"
       stroke="#1c1c1a"
       stroke-width="0.24"
       stroke-linecap="round"
       stroke-linejoin="round"
       fill="none"
       id="path2" />
    <path
       d="m 1178.2284,1286.2982 c 0.3773,10.2195 -4.3597,22.6411 -12.0923,31.0722 -7.7325,8.4309 -18.4604,12.8711 -29.1879,12.8722 -10.7269,9e-4 -21.4534,-4.4368 -29.1844,-12.8649 -7.7311,-8.4281 -12.4667,-20.8466 -12.0885,-31.0648 h -28.3468 c 0.024,8.5207 1.4149,17.6736 4.8882,26.6061 3.4733,8.9324 9.0289,17.6445 15.7054,24.6307 13.3529,13.9722 31.1894,21.0403 49.0261,21.0392 17.8373,-9e-4 35.6752,-7.0714 49.0296,-21.0467 6.6772,-6.9875 12.2336,-15.701 15.7076,-24.6349 3.4739,-8.9338 4.8653,-18.0876 4.8898,-26.6091 z"
       stroke="#1c1c1a"
       stroke-width="0.24"
       stroke-linecap="round"
       stroke-linejoin="round"
       fill="none"
       id="path4" />
    <path
       d="m 1178.2284,1286.2982 h 28.3466 V 1121.709 h -28.3466 z"
       stroke="#1c1c1a"
       stroke-width="0.24"
       stroke-linecap="round"
       stroke-linejoin="round"
       fill="none"
       id="path11" />
    <path
       d="m 1136.9553,1146.0073 c 4.8633,0.017 10.0976,0.8877 15.1935,3.0837 5.0961,2.1959 10.054,5.717 14.0512,9.9233 7.9941,8.4127 12.1451,19.5671 12.0284,30.9266 -0.1167,11.3594 -4.5007,22.9241 -12.0922,31.0692 -7.5913,8.1449 -18.3899,12.8703 -29.188,12.8712 -10.7982,10e-4 -21.5959,-4.7225 -29.1859,-12.8662 -7.5899,-8.1438 -11.9724,-19.7076 -12.087,-31.0671 -0.1149,-11.3595 4.0377,-22.5145 12.0333,-30.9287 3.9979,-4.207 8.9564,-7.7289 14.0528,-9.9257 5.0964,-2.1967 10.3306,-3.0686 15.1939,-3.0863 z"
       stroke="#1c1c1a"
       stroke-width="0.24"
       stroke-linecap="round"
       stroke-linejoin="round"
       fill="none"
       id="path12" />
    <path
       d="m 1136.9553,1117.6609 c -8.1875,-0.013 -17.0632,1.5475 -25.6282,5.0764 -8.5649,3.5291 -16.8189,9.0261 -23.6038,16.0975 -6.7851,7.0713 -12.1011,15.717 -15.5052,24.5058 -3.404,8.7887 -4.8962,17.7207 -4.8896,26.6074 0.01,8.8866 1.5116,17.7279 4.8706,26.5472 1.6794,4.4096 3.8224,8.8138 6.4763,13.0064 2.6539,4.1926 5.8189,8.1737 9.235,11.7038 13.6649,14.1203 31.3512,21.0234 49.0378,21.0225 17.6867,0 35.3736,-6.9059 49.04,-21.0275 3.4165,-3.5304 6.5818,-7.5119 9.236,-11.7048 2.6543,-4.1929 4.7978,-8.5972 6.4777,-13.007 3.3599,-8.8196 4.8658,-17.6611 4.8733,-26.5477 0.01,-8.8867 -1.484,-17.8185 -4.8871,-26.607 -3.4033,-8.7885 -8.7184,-17.4335 -15.5027,-24.5042 -6.7843,-7.0705 -15.0378,-12.5667 -23.6023,-16.095 -8.5645,-3.5282 -17.4401,-5.0881 -25.6278,-5.0738 z m 0,28.3464 c 4.8633,0.017 10.0976,0.8877 15.1935,3.0837 5.0961,2.1959 10.054,5.717 14.0512,9.9233 7.9941,8.4127 12.1451,19.5671 12.0284,30.9266 -0.1167,11.3594 -4.5007,22.9241 -12.0922,31.0692 -7.5913,8.1449 -18.3899,12.8703 -29.188,12.8712 -10.7982,10e-4 -21.5959,-4.7225 -29.1859,-12.8662 -7.5899,-8.1438 -11.9724,-19.7076 -12.087,-31.0671 -0.1149,-11.3595 4.0377,-22.5145 12.0333,-30.9287 3.9979,-4.207 8.9564,-7.7289 14.0528,-9.9257 5.0964,-2.1967 10.3306,-3.0686 15.1939,-3.0863 z"
       stroke="#000000"
       stroke-width="0"
       fill="#1c1c1a"
       fill-opacity="1"
       id="path17" />
    <path
       d="m 1178.2284,1286.2982 c 9.4488,0 18.8977,0 28.3466,0 0,-54.8632 0,-109.7262 0,-164.5892 -9.4489,0 -18.8978,0 -28.3466,0 0,54.863 0,109.726 0,164.5892 z"
       stroke="#000000"
       stroke-width="0"
       fill="#1c1c1a"
       fill-opacity="1"
       id="path18" />
    <path
       d="m 1178.2284,1286.2982 c 0.3773,10.2195 -4.3597,22.6411 -12.0923,31.0722 -7.7325,8.4309 -18.4604,12.8711 -29.1879,12.8722 -10.7269,9e-4 -21.4534,-4.4368 -29.1844,-12.8649 -7.7311,-8.4281 -12.4667,-20.8466 -12.0885,-31.0648 -9.449,0 -18.898,0 -28.3468,0 0.024,8.5207 1.4149,17.6736 4.8882,26.6061 3.4733,8.9324 9.0289,17.6445 15.7054,24.6307 13.3529,13.9722 31.1894,21.0403 49.0261,21.0392 17.8373,-9e-4 35.6752,-7.0714 49.0296,-21.0467 6.6772,-6.9875 12.2336,-15.701 15.7076,-24.6349 3.4739,-8.9338 4.8653,-18.0876 4.8898,-26.6091 -9.449,0 -18.898,0 -28.3468,0 z"
       stroke="#000000"
       stroke-width="0"
       fill="#1c1c1a"
       fill-opacity="1"
       id="path19" />
  </g>
  <g
     id="letter-i">
    <circle
       cx="644.59998"
       cy="1080"
       r="19.84"
       stroke="#1c1c1a"
       stroke-width="0.24"
       fill="none"
       id="circle3" />
    <path
       d="m 658.7912,1121.709 h -28.3465 v 136.063 h 28.3465 z"
       stroke="#1c1c1a"
       stroke-width="0.24"
       stroke-linecap="round"
       stroke-linejoin="round"
       fill="none"
       id="path14" />
    <g
       id="g38">
      <g
         id="g31">
        <path
           d="m 664.4605,1080.4867 c 0.18324,-4.6193 -2.09777,-10.2148 -5.81176,-14.0309 -3.71394,-3.8159 -8.8609,-5.8523 -14.03074,-5.8116 -5.1699,0.041 -10.3626,2.1584 -14.0308,5.8116 -3.6682,3.6533 -5.8117,8.8421 -5.8117,14.0309 0,5.1887 2.1435,10.3774 5.8117,14.0308 3.6682,3.6533 8.8609,5.771 14.0308,5.8116 5.16984,0.041 10.3168,-1.9957 14.03074,-5.8116 3.71399,-3.8161 5.995,-9.4117 5.81176,-14.0308 z"
           stroke="#000000"
           stroke-width="0"
           fill="#1c1c1a"
           fill-opacity="1"
           id="path20" />
        <path
           d="m 658.7912,1121.709 c -9.4488,0 -18.89765,0 -28.3465,0 0,45.3542 0,90.7086 0,136.063 9.44885,0 18.8977,0 28.3465,0 0,-45.3544 0,-90.7088 0,-136.063 z"
           stroke="#000000"
           stroke-width="0"
           fill="#1c1c1a"
           fill-opacity="1"
           id="path21" />
      </g>
    </g>
  </g>
  <g
     id="letter-e">
    <path
       d="m 777.5535,1213.0957 22.45035,17.5356 c -6.56555,10.0284 -15.85655,18.3321 -26.12031,23.6877 -5.13174,2.6778 -10.50684,4.6186 -15.73434,5.878 -5.22757,1.2593 -10.30765,1.8373 -15.47806,1.832 -8.45574,-0.01 -17.15344,-1.5762 -25.67454,-5.065 -4.2606,-1.7444 -8.47707,-3.9691 -12.5044,-6.7245 -4.0274,-2.7555 -7.8658,-6.0417 -11.2688,-9.5889 -13.61213,-14.1886 -20.2592,-32.5514 -20.2589,-50.9137 1.6e-4,-18.3624 6.6478,-36.7246 20.2485,-50.9115 3.4001,-3.5466 7.2349,-6.8325 11.2732,-9.5877 4.0384,-2.7554 8.2804,-4.9803 12.5277,-6.7239 8.4947,-3.4874 17.01064,-5.0503 25.5703,-5.0568 8.5596,-0.01 17.163,1.5431 25.6282,5.0764 8.4653,3.5335 16.7924,9.0507 23.60395,16.0975 6.81152,7.0467 12.10745,15.6233 15.50505,24.5058 3.39753,8.8826 4.89674,18.0712 4.8938,26.646 -5.4e-4,1.7227 -0.0618,3.4207 -0.18456,5.1657 -0.12274,1.7451 -0.30719,3.5371 -0.56084,5.3196 H 702.5151 c 1.9237,9.1423 7.70176,18.3891 15.0967,24.4489 7.39504,6.0598 16.407,8.9328 25.0996,8.9749 6.6151,0.032 13.0452,-1.5753 19.1751,-5.1089 6.1299,-3.5337 11.95957,-8.9935 15.667,-15.4872 z"
       stroke="#1c1c1a"
       stroke-width="0.24"
       stroke-linecap="round"
       stroke-linejoin="round"
       fill="none"
       id="path9" />
    <path
       d="m 780.3146,1171.9214 c -6.8166,-16.5126 -22.2736,-26.1167 -37.73025,-26.1179 -15.45875,0 -30.91725,9.6031 -37.729,26.1179 z"
       stroke="#1c1c1a"
       stroke-width="0.24"
       stroke-linecap="round"
       stroke-linejoin="round"
       fill="none"
       id="path13" />
    <path
       d="m 777.5535,1213.0957 c -3.70743,6.4937 -9.5371,11.9535 -15.667,15.4872 -6.1299,3.5336 -12.56,5.1409 -19.1751,5.1089 -8.6926,-0.042 -17.70456,-2.9151 -25.0996,-8.9749 -7.39494,-6.0598 -13.173,-15.3066 -15.0967,-24.4489 36.3182,0 72.63645,0 108.9547,0 0.25365,-1.7825 0.4381,-3.5745 0.56084,-5.3196 0.1228,-1.745 0.18402,-3.443 0.18456,-5.1657 0.003,-8.5748 -1.49627,-17.7634 -4.8938,-26.646 -3.3976,-8.8825 -8.69353,-17.4591 -15.50505,-24.5058 -6.81155,-7.0468 -15.13865,-12.564 -23.60395,-16.0975 -8.4652,-3.5333 -17.0686,-5.083 -25.6282,-5.0764 -8.55966,0.01 -17.0756,1.5694 -25.5703,5.0568 -4.2473,1.7436 -8.4893,3.9685 -12.5277,6.7239 -4.0383,2.7552 -7.8731,6.0411 -11.2732,9.5877 -13.6007,14.1869 -20.24834,32.5491 -20.2485,50.9115 -3e-4,18.3623 6.64677,36.7251 20.2589,50.9137 3.403,3.5472 7.2414,6.8334 11.2688,9.5889 4.02733,2.7554 8.2438,4.9801 12.5044,6.7245 8.5211,3.4888 17.2188,5.0566 25.67454,5.065 5.17041,0.01 10.25049,-0.5727 15.47806,-1.832 5.2275,-1.2594 10.6026,-3.2002 15.73434,-5.878 10.26376,-5.3556 19.55476,-13.6593 26.12031,-23.6877 -7.4834,-5.8452 -14.96685,-11.6904 -22.45035,-17.5356 z m 2.7611,-41.1743 c -25.1531,0 -50.3062,0 -75.45925,0 6.81175,-16.5148 22.27025,-26.1192 37.729,-26.1179 15.45665,0 30.91365,9.6053 37.73025,26.1179 z"
       stroke="#000000"
       stroke-width="0"
       fill="#1c1c1a"
       fill-opacity="1"
       id="path22" />
  </g>
  <g
     id="letter-i2">
    <path
       d="M 902.91974,1121.709 H 874.5733 v 136.063 h 28.34644 z"
       stroke="#1c1c1a"
       stroke-width="0.24"
       stroke-linecap="round"
       stroke-linejoin="round"
       fill="none"
       id="path3" />
    <circle
       cx="888.70001"
       cy="1080"
       r="19.84"
       stroke="#1c1c1a"
       stroke-width="0.24"
       fill="none"
       id="circle7" />
    <path
       d="m 902.91974,1121.709 c -9.44884,0 -18.89758,0 -28.34644,0 0,45.3542 0,90.7086 0,136.063 9.44886,0 18.8976,0 28.34644,0 0,-45.3544 0,-90.7088 0,-136.063 z"
       stroke="#000000"
       stroke-width="0"
       fill="#1c1c1a"
       fill-opacity="1"
       id="path28" />
    <path
       d="m 908.58905,1080.4867 c 0.18315,-4.6193 -2.09775,-10.2148 -5.81175,-14.0309 -3.714,-3.8159 -8.8609,-5.8523 -14.03084,-5.8116 -5.1698,0.041 -10.36256,2.1584 -14.0307,5.8116 -3.66821,3.6533 -5.81176,8.8421 -5.81176,14.0309 0,5.1887 2.14355,10.3774 5.81176,14.0308 3.66814,3.6533 8.8609,5.771 14.0307,5.8116 5.16994,0.041 10.31684,-1.9957 14.03084,-5.8116 3.714,-3.8161 5.9949,-9.4117 5.81175,-14.0308 z"
       stroke="#000000"
       stroke-width="0"
       fill="#1c1c1a"
       fill-opacity="1"
       id="path29" />
  </g>
  <g
     id="letter-n">
    <path
       d="M 948.27405,1257.772 H 919.9276 v -75.1181 h 28.34645 z"
       stroke="#1c1c1a"
       stroke-width="0.24"
       stroke-linecap="round"
       stroke-linejoin="round"
       fill="none"
       id="path6" />
    <path
       d="m 1021.9741,1257.772 h 28.3466 v -75.1181 h -28.3466 z"
       stroke="#1c1c1a"
       stroke-width="0.24"
       stroke-linecap="round"
       stroke-linejoin="round"
       fill="none"
       id="path7" />
    <path
       d="m 948.2734,1182.6539 a 36.850395,36.850395 0 0 1 73.7007,0 h 28.3466 a 65.1969,65.1969 0 0 0 -130.3938,0 z"
       stroke="#1c1c1a"
       stroke-width="0.24"
       stroke-linecap="round"
       stroke-linejoin="round"
       fill="none"
       id="path8" />
    <path
       d="m 948.27405,1257.772 c 0,-25.0395 0,-50.0788 0,-75.1181 -9.44879,0 -18.89759,0 -28.34645,0 0,25.0393 0,50.0786 0,75.1181 9.44886,0 18.89766,0 28.34645,0 z"
       stroke="#000000"
       stroke-width="0"
       fill="#1c1c1a"
       fill-opacity="1"
       id="path23" />
    <path
       d="m 948.2733,1182.6539 c -0.3375,-8.5703 3.8906,-18.9872 10.7933,-26.0572 6.9027,-7.0701 16.4799,-10.7932 26.0571,-10.7932 9.5773,0 19.1546,3.7231 26.0572,10.7932 6.9027,7.07 11.1309,17.4869 10.7932,26.0572 9.4489,0 18.8977,0 28.3466,0 -0.023,-7.6855 -1.3251,-15.9414 -4.5777,-23.9986 -3.2526,-8.0573 -8.4553,-15.916 -14.7077,-22.218 -12.5047,-12.6038 -29.2082,-18.9803 -45.9116,-18.9803 -16.70335,0 -33.4067,6.3765 -45.91154,18.9803 -6.25236,6.302 -11.45506,14.1607 -14.70766,22.218 -3.2526,8.0572 -4.55516,16.3131 -4.57756,23.9986 9.44879,0 18.89756,0 28.34636,0 z"
       stroke="#000000"
       stroke-width="0"
       fill="#1c1c1a"
       fill-opacity="1"
       id="path24" />
    <path
       d="m 1021.9741,1257.772 c 9.4489,0 18.8977,0 28.3466,0 0,-25.0395 0,-50.0788 0,-75.1181 -9.4489,0 -18.8977,0 -28.3466,0 0,25.0393 0,50.0786 0,75.1181 z"
       stroke="#000000"
       stroke-width="0"
       fill="#1c1c1a"
       fill-opacity="1"
       id="path25" />
    <path
       d="m 919.9276,1190.117 28.3465,-0.18"
       stroke="#1c1c1a"
       stroke-width="0.24"
       stroke-linecap="round"
       stroke-linejoin="round"
       fill="none"
       id="path30" />
  </g>
  <g
     id="letter-b">
    <path
       d="m 546.65173,1117.6609 c 8.18757,-0.014 17.06324,1.5456 25.62777,5.0738 8.56456,3.5283 16.81803,9.0245 23.60234,16.095 6.7843,7.0707 12.09942,15.7157 15.50262,24.5042 3.4032,8.7885 4.89444,17.7203 4.88709,26.607 -0.007,8.8866 -1.51335,17.7281 -4.87325,26.5477 -1.67986,4.4098 -3.8233,8.8141 -6.47765,13.007 -2.65429,4.1929 -5.81955,8.1744 -9.23615,11.7048 -13.6662,14.1216 -31.3532,21.0265 -49.03985,21.0275 -17.68665,9e-4 -35.37298,-6.9022 -49.03781,-21.0225 -3.4162,-3.5301 -6.58108,-7.5112 -9.23498,-11.7038 -2.65393,-4.1926 -4.79691,-8.5968 -6.47641,-13.0064 -3.35898,-8.8193 -4.86408,-17.6606 -4.87058,-26.5472 -0.006,-8.8867 1.48566,-17.8187 4.88968,-26.6074 3.40405,-8.7888 8.72003,-17.4345 15.50501,-24.5058 6.78506,-7.0714 15.03904,-12.5684 23.604,-16.0975 8.56494,-3.5289 17.44067,-5.0898 25.62817,-5.0764 z"
       stroke="#1c1c1a"
       stroke-width="0.24"
       stroke-linecap="round"
       stroke-linejoin="round"
       fill="none"
       id="path1" />
    <path
       d="m 546.65173,1146.0073 c 4.86327,0.017 10.09747,0.8877 15.19347,3.0837 5.096,2.1959 10.054,5.717 14.05116,9.9233 7.9942,8.4127 12.14514,19.5671 12.02844,30.9266 -0.11663,11.3594 -4.5008,22.9241 -12.09216,31.0692 -7.59131,8.1449 -18.38989,12.8703 -29.18799,12.8712 -10.79815,10e-4 -21.59588,-4.7225 -29.18595,-12.8662 -7.59002,-8.1438 -11.97228,-19.7076 -12.08715,-31.0671 -0.11478,-11.3595 4.03795,-22.5145 12.03355,-30.9287 3.9978,-4.207 8.95635,-7.7289 14.05266,-9.9257 5.09644,-2.1967 10.33069,-3.0686 15.19397,-3.0863 z"
       stroke="#1c1c1a"
       stroke-width="0.24"
       stroke-linecap="round"
       stroke-linejoin="round"
       fill="none"
       id="path5" />
    <path
       d="m 505.37155,1257.772 h -28.34643 v -232.441 h 28.34643 z"
       stroke="#1c1c1a"
       stroke-width="0.24"
       stroke-linecap="round"
       stroke-linejoin="round"
       fill="none"
       id="path10" />
    <g
       id="g35"
       transform="translate(-3.0095326e-6,3.4531857e-5)">
      <g
         id="g33">
        <path
           d="m 505.37155,1257.772 c 0,-77.4804 0,-154.9606 0,-232.441 -9.44882,0 -18.89765,0 -28.34643,0 0,77.4804 0,154.9606 0,232.441 9.44878,0 18.89761,0 28.34643,0 z"
           stroke="#000000"
           stroke-width="0"
           fill="#1c1c1a"
           fill-opacity="1"
           id="path26" />
        <path
           d="m 546.65173,1117.6609 c -8.1875,-0.013 -17.06323,1.5475 -25.62817,5.0764 -8.56496,3.5291 -16.81894,9.0261 -23.604,16.0975 -6.78498,7.0713 -12.10096,15.717 -15.50501,24.5058 -3.40402,8.7887 -4.89615,17.7207 -4.88968,26.6074 0.006,8.8866 1.5116,17.7279 4.87058,26.5472 1.6795,4.4096 3.82248,8.8138 6.47641,13.0064 2.6539,4.1926 5.81878,8.1737 9.23498,11.7038 13.66483,14.1203 31.35116,21.0234 49.03781,21.0225 17.68665,0 35.37365,-6.9059 49.03985,-21.0275 3.4166,-3.5304 6.58186,-7.5119 9.23615,-11.7048 2.65435,-4.1929 4.79779,-8.5972 6.47765,-13.007 3.3599,-8.8196 4.86586,-17.6611 4.87325,-26.5477 0.007,-8.8867 -1.48389,-17.8185 -4.88709,-26.607 -3.4032,-8.7885 -8.71832,-17.4335 -15.50262,-24.5042 -6.78431,-7.0705 -15.03778,-12.5667 -23.60234,-16.095 -8.56453,-3.5282 -17.4402,-5.0881 -25.62777,-5.0738 z m 0,28.3464 c 4.86327,0.017 10.09747,0.8877 15.19347,3.0837 5.096,2.1959 10.054,5.717 14.05116,9.9233 7.9942,8.4127 12.14514,19.5671 12.02844,30.9266 -0.11663,11.3594 -4.5008,22.9241 -12.09216,31.0692 -7.59131,8.1449 -18.38989,12.8703 -29.18799,12.8712 -10.79815,10e-4 -21.59588,-4.7225 -29.18595,-12.8662 -7.59002,-8.1438 -11.97228,-19.7076 -12.08715,-31.0671 -0.11478,-11.3595 4.03795,-22.5145 12.03355,-30.9287 3.9978,-4.207 8.95635,-7.7289 14.05266,-9.9257 5.09644,-2.1967 10.33069,-3.0686 15.19397,-3.0863 z"
           stroke="#000000"
           stroke-width="0"
           fill="#1c1c1a"
           fill-opacity="1"
           id="path27" />
      </g>
    </g>
  </g>
</svg>
